REM DIRINDEX 1\2,1\3,1\4,1\5
REM DIRNAME "folder01","folder02","folder03","folder04","folder05"
TITLE ""
FILE "1Q_t_1588-1600.mp3" MP3
  TRACK 01 AUDIO
    TITLE "3:cjc172_5750"
    INDEX 01 00:00:00
  TRACK 02 AUDIO
    TITLE "0:"
    INDEX 01 00:01:33
  TRACK 03 AUDIO
    TITLE "4:cjc172_5751"
    INDEX 01 00:01:41
  TRACK 04 AUDIO
    TITLE "0:"
    INDEX 01 00:02:70
  TRACK 05 AUDIO
    TITLE "5:cjc172_5752"
    INDEX 01 00:03:01
  TRACK 06 AUDIO
    TITLE "0:"
    INDEX 01 00:08:73
  TRACK 07 AUDIO
    TITLE "3:cjc172_5753"
    INDEX 01 00:09:41
  TRACK 08 AUDIO
    TITLE "0:"
    INDEX 01 00:10:66
  TRACK 09 AUDIO
    TITLE "4:cjc172_5754"
    INDEX 01 00:11:00
  TRACK 10 AUDIO
    TITLE "0:"
    INDEX 01 00:12:31
  TRACK 11 AUDIO
    TITLE "5:cjc172_5755"
    INDEX 01 00:12:37
  TRACK 12 AUDIO
    TITLE "0:"
    INDEX 01 00:17:15
  TRACK 13 AUDIO
    TITLE "3:cjc172_5756"
    INDEX 01 00:17:60
  TRACK 14 AUDIO
    TITLE "0:"
    INDEX 01 00:18:57
  TRACK 15 AUDIO
    TITLE "4:cjc172_5757"
    INDEX 01 00:18:63
  TRACK 16 AUDIO
    TITLE "0:"
    INDEX 01 00:20:74
  TRACK 17 AUDIO
    TITLE "5:cjc172_5758"
    INDEX 01 00:21:07
  TRACK 18 AUDIO
    TITLE "0:"
    INDEX 01 00:25:36
  TRACK 19 AUDIO
    TITLE "3:cjc172_5759"
    INDEX 01 00:26:08
  TRACK 20 AUDIO
    TITLE "0:"
    INDEX 01 00:27:19
  TRACK 21 AUDIO
    TITLE "4:cjc172_5760"
    INDEX 01 00:27:27
  TRACK 22 AUDIO
    TITLE "0:"
    INDEX 01 00:29:41
  TRACK 23 AUDIO
    TITLE "5:cjc172_5761"
    INDEX 01 00:29:49
  TRACK 24 AUDIO
    TITLE "0:"
    INDEX 01 00:33:29
  TRACK 25 AUDIO
    TITLE "3:cjc172_5762"
    INDEX 01 00:34:01
  TRACK 26 AUDIO
    TITLE "0:"
    INDEX 01 00:35:05
  TRACK 27 AUDIO
    TITLE "4:cjc172_5763"
    INDEX 01 00:35:11
  TRACK 28 AUDIO
    TITLE "0:"
    INDEX 01 00:37:74
  TRACK 29 AUDIO
    TITLE "5:cjc172_5764"
    INDEX 01 00:38:05
  TRACK 30 AUDIO
    TITLE "0:"
    INDEX 01 00:42:44
  TRACK 31 AUDIO
    TITLE "3:cjc172_5765"
    INDEX 01 00:43:14
  TRACK 32 AUDIO
    TITLE "0:"
    INDEX 01 00:44:21
  TRACK 33 AUDIO
    TITLE "4:cjc172_5766"
    INDEX 01 00:44:33
  TRACK 34 AUDIO
    TITLE "0:"
    INDEX 01 00:46:61
  TRACK 35 AUDIO
    TITLE "5:cjc172_5767"
    INDEX 01 00:46:67
  TRACK 36 AUDIO
    TITLE "0:"
    INDEX 01 00:52:27
  TRACK 37 AUDIO
    TITLE "3:cjc172_5768"
    INDEX 01 00:52:72
  TRACK 38 AUDIO
    TITLE "0:"
    INDEX 01 00:54:04
  TRACK 39 AUDIO
    TITLE "4:cjc172_5769"
    INDEX 01 00:54:12
  TRACK 40 AUDIO
    TITLE "0:"
    INDEX 01 00:57:59
  TRACK 41 AUDIO
    TITLE "5:cjc172_5770"
    INDEX 01 00:57:67
  TRACK 42 AUDIO
    TITLE "0:"
    INDEX 01 01:01:65
  TRACK 43 AUDIO
    TITLE "3:cjc172_5771"
    INDEX 01 01:02:35
  TRACK 44 AUDIO
    TITLE "0:"
    INDEX 01 01:03:56
  TRACK 45 AUDIO
    TITLE "4:cjc172_5772"
    INDEX 01 01:03:62
  TRACK 46 AUDIO
    TITLE "0:"
    INDEX 01 01:06:54
  TRACK 47 AUDIO
    TITLE "5:cjc172_5773"
    INDEX 01 01:06:62
  TRACK 48 AUDIO
    TITLE "0:"
    INDEX 01 01:11:30
  TRACK 49 AUDIO
    TITLE "3:cjc172_5774"
    INDEX 01 01:12:00
  TRACK 50 AUDIO
    TITLE "0:"
    INDEX 01 01:13:11
  TRACK 51 AUDIO
    TITLE "4:cjc172_5775"
    INDEX 01 01:13:21
  TRACK 52 AUDIO
    TITLE "0:"
    INDEX 01 01:14:52
  TRACK 53 AUDIO
    TITLE "5:cjc172_5776"
    INDEX 01 01:14:58
  TRACK 54 AUDIO
    TITLE "0:"
    INDEX 01 01:20:17
  TRACK 55 AUDIO
    TITLE "3:cjc172_5777"
    INDEX 01 01:20:62
  TRACK 56 AUDIO
    TITLE "0:"
    INDEX 01 01:22:00
  TRACK 57 AUDIO
    TITLE "4:cjc172_5778"
    INDEX 01 01:22:08
  TRACK 58 AUDIO
    TITLE "0:"
    INDEX 01 01:23:33
  TRACK 59 AUDIO
    TITLE "5:cjc172_5779"
    INDEX 01 01:23:39
  TRACK 60 AUDIO
    TITLE "0:"
    INDEX 01 01:28:70
  TRACK 61 AUDIO
    TITLE "3:cjc172_5780"
    INDEX 01 01:29:40
  TRACK 62 AUDIO
    TITLE "0:"
    INDEX 01 01:30:70
  TRACK 63 AUDIO
    TITLE "4:cjc172_5781"
    INDEX 01 01:31:05
  TRACK 64 AUDIO
    TITLE "0:"
    INDEX 01 01:35:30
  TRACK 65 AUDIO
    TITLE "5:cjc172_5782"
    INDEX 01 01:35:36
  TRACK 66 AUDIO
    TITLE "0:"
    INDEX 01 01:39:46
  TRACK 67 AUDIO
    TITLE "2:cjc172_5783"
    INDEX 01 01:40:16
  TRACK 68 AUDIO
    TITLE "0:"
    INDEX 01 01:41:21
  TRACK 69 AUDIO
    TITLE "3:cjc172_5784"
    INDEX 01 01:41:64
  TRACK 70 AUDIO
    TITLE "0:"
    INDEX 01 01:43:06
  TRACK 71 AUDIO
    TITLE "4:cjc172_5785"
    INDEX 01 01:43:12
  TRACK 72 AUDIO
    TITLE "0:"
    INDEX 01 01:45:52
  TRACK 73 AUDIO
    TITLE "5:cjc172_5786"
    INDEX 01 01:45:58
  TRACK 74 AUDIO
    TITLE "0:"
    INDEX 01 01:50:16
  TRACK 75 AUDIO
    TITLE "3:cjc172_5787"
    INDEX 01 01:50:61
  TRACK 76 AUDIO
    TITLE "0:"
    INDEX 01 01:52:33
  TRACK 77 AUDIO
    TITLE "4:cjc172_5788"
    INDEX 01 01:52:41
  TRACK 78 AUDIO
    TITLE "0:"
    INDEX 01 01:54:53
  TRACK 79 AUDIO
    TITLE "5:cjc172_5789"
    INDEX 01 01:54:59
  TRACK 80 AUDIO
    TITLE "0:"
    INDEX 01 02:02:06
